<svg width="42" height="41" viewBox="0 0 42 41" fill="none" xmlns="http://www.w3.org/2000/svg">
<path d="M18.465 18.895C19.995 21.355 19.77 24.25 17.94 25.42C16.11 26.56 13.38 25.495 11.835 23.035C10.305 20.575 10.545 17.65 12.375 16.51C14.205 15.37 16.935 16.435 18.465 18.895ZM21 29.125C24 29.125 24.75 28 24.75 28C24.75 28 24 31 21 31C18 31 17.25 28.045 17.25 28C17.25 28 18 29.125 21 29.125ZM29.625 16.51C31.455 17.65 31.695 20.575 30.165 23.035C28.62 25.495 25.89 26.56 24.06 25.42C22.23 24.25 22.005 21.355 23.535 18.895C25.065 16.435 27.795 15.37 29.625 16.51ZM21 32.5C24.75 32.5 33 24.79 33 19C33 13.21 27.615 8.5 21 8.5C14.385 8.5 9 13.21 9 19C9 24.79 17.25 32.5 21 32.5ZM21 5.5C29.25 5.5 36 11.56 36 19C36 25.12 27.48 35.5 21 35.5C14.52 35.5 6 25.12 6 19C6 11.56 12.75 5.5 21 5.5Z" fill="#02E4C0"/>
</svg>
