<svg width="42" height="41" viewBox="0 0 42 41" fill="none" xmlns="http://www.w3.org/2000/svg">
<path d="M32.275 11C29.815 11 27.4917 11.9889 25.8346 13.7017L13.825 24.7203C12.7317 25.8504 11.2796 26.4684 9.725 26.4684C6.53042 26.4684 3.91667 23.8021 3.91667 20.5C3.91667 17.198 6.53042 14.5316 9.725 14.5316C11.2796 14.5316 12.7317 15.1497 13.8933 16.3504L15.8238 18.1162L18.4375 15.75L16.2508 13.79C15.3953 12.9024 14.3782 12.1988 13.2581 11.7199C12.1379 11.2411 10.9371 10.9964 9.725 11C4.63417 11 0.5 15.2733 0.5 20.5C0.5 25.7268 4.63417 30 9.725 30C12.185 30 14.5083 29.0112 16.1654 27.2983L28.175 16.2798C29.2683 15.1497 30.7204 14.5316 32.275 14.5316C35.4696 14.5316 38.0833 17.198 38.0833 20.5C38.0833 23.8021 35.4696 26.4684 32.275 26.4684C30.7375 26.4684 29.2683 25.8504 28.1067 24.6496L26.125 22.8662L23.5625 25.2324L25.7492 27.21C26.607 28.0932 27.625 28.7927 28.7448 29.2684C29.8646 29.7442 31.0643 29.9868 32.275 29.9823C37.3658 29.9823 41.5 25.7268 41.5 20.5C41.5 15.2026 37.3658 11 32.275 11Z" fill="#02E4C0"/>
</svg>
