<svg width="42" height="41" viewBox="0 0 42 41" fill="none" xmlns="http://www.w3.org/2000/svg">
<path d="M14.4094 22.752L18.8496 17.9685L9.1376 7.52267C8.38449 6.71134 7.08223 6.93108 6.61154 7.97904C5.49756 10.4975 5.9055 13.5907 7.83534 15.6867L14.4094 22.752ZM25.0471 19.6926C27.4476 20.8927 30.8209 20.0475 33.3156 17.36C36.3123 14.1316 36.8929 9.50028 34.5865 7.01559C32.2958 4.5478 27.9967 5.1563 24.9843 8.38471C22.4896 11.0722 21.7051 14.7063 22.8191 17.2924L8.60414 32.6062C8.31078 32.9223 8.14597 33.3509 8.14597 33.7979C8.14597 34.2448 8.31078 34.6735 8.60414 34.9895C8.89751 35.3055 9.2954 35.4831 9.71028 35.4831C10.1252 35.4831 10.523 35.3055 10.8164 34.9895L20.5284 24.5606L30.2247 35.0064C30.37 35.1629 30.5424 35.287 30.7322 35.3717C30.922 35.4564 31.1254 35.5 31.3308 35.5C31.5363 35.5 31.7397 35.4564 31.9295 35.3717C32.1193 35.287 32.2917 35.1629 32.437 35.0064C32.5822 34.8499 32.6975 34.6641 32.7761 34.4597C32.8547 34.2552 32.8951 34.0361 32.8951 33.8148C32.8951 33.5935 32.8547 33.3743 32.7761 33.1699C32.6975 32.9654 32.5822 32.7796 32.437 32.6231L22.7407 22.1773L25.0471 19.6926V19.6926Z" fill="#02E4C0"/>
</svg>
