<svg width="42" height="42" viewBox="0 0 42 42" fill="none" xmlns="http://www.w3.org/2000/svg">
<path d="M36.2106 4.55273H6.75153C6.04307 4.55273 5.4707 5.12511 5.4707 5.83357V35.2927C5.4707 36.0011 6.04307 36.5735 6.75153 36.5735H36.2106C36.9191 36.5735 37.4915 36.0011 37.4915 35.2927V5.83357C37.4915 5.12511 36.9191 4.55273 36.2106 4.55273ZM32.5122 13.8988H29.9546C27.9493 13.8988 27.561 14.8514 27.561 16.2523V19.3383H32.3481L31.7237 24.1695H27.561V36.5735H22.5698V24.1735H18.3951V19.3383H22.5698V15.776C22.5698 11.6413 25.0954 9.38787 28.7858 9.38787C30.555 9.38787 32.072 9.51996 32.5163 9.58V13.8988H32.5122Z" fill="white"/>
</svg>
