<svg width="42" height="42" viewBox="0 0 42 42" fill="none" xmlns="http://www.w3.org/2000/svg">
<path d="M36.197 4.55273H6.73786C6.0294 4.55273 5.45703 5.12511 5.45703 5.83357V35.2927C5.45703 36.0011 6.0294 36.5735 6.73786 36.5735H36.197C36.9054 36.5735 37.4778 36.0011 37.4778 35.2927V5.83357C37.4778 5.12511 36.9054 4.55273 36.197 4.55273ZM14.9552 31.8384H10.2041V16.5565H14.9552V31.8384ZM12.5817 14.4672C12.037 14.4672 11.5046 14.3057 11.0517 14.0031C10.5989 13.7005 10.2459 13.2704 10.0375 12.7672C9.82906 12.264 9.77453 11.7103 9.88078 11.1761C9.98704 10.642 10.2493 10.1513 10.6344 9.76616C11.0196 9.38104 11.5102 9.11876 12.0444 9.01251C12.5786 8.90625 13.1323 8.96079 13.6355 9.16921C14.1387 9.37764 14.5688 9.7306 14.8713 10.1835C15.1739 10.6363 15.3354 11.1687 15.3354 11.7134C15.3314 13.2344 14.0986 14.4672 12.5817 14.4672ZM32.7427 31.8384H27.9957V24.4056C27.9957 22.6325 27.9636 20.355 25.5261 20.355C23.0565 20.355 22.6762 22.2842 22.6762 24.2775V31.8384H17.9331V16.5565H22.4881V18.6459H22.5521C23.1845 17.4451 24.7335 16.1763 27.047 16.1763C31.8582 16.1763 32.7427 19.3423 32.7427 23.457V31.8384Z" fill="white"/>
</svg>
