<svg width="46" height="47" viewBox="0 0 46 47" fill="none" xmlns="http://www.w3.org/2000/svg">
<path d="M23.0007 27.3802C27.2288 27.3802 30.6673 23.9417 30.6673 19.7135C30.6673 15.4854 27.2288 12.0469 23.0007 12.0469C18.7725 12.0469 15.334 15.4854 15.334 19.7135C15.334 23.9417 18.7725 27.3802 23.0007 27.3802ZM23.0007 15.8802C25.1147 15.8802 26.834 17.5995 26.834 19.7135C26.834 21.8276 25.1147 23.5469 23.0007 23.5469C20.8866 23.5469 19.1673 21.8276 19.1673 19.7135C19.1673 17.5995 20.8866 15.8802 23.0007 15.8802Z" fill="white"/>
<path d="M21.8879 42.3567C22.2122 42.5884 22.6009 42.7129 22.9995 42.7129C23.3981 42.7129 23.7868 42.5884 24.1112 42.3567C24.6939 41.9446 38.3884 32.0566 38.3329 19.7132C38.3329 11.2588 31.4539 4.37988 22.9995 4.37988C14.5451 4.37988 7.66618 11.2588 7.66618 19.7036C7.6106 32.0566 21.3052 41.9446 21.8879 42.3567ZM22.9995 8.21322C29.3418 8.21322 34.4995 13.371 34.4995 19.7228C34.5398 28.229 26.0892 35.8669 22.9995 38.372C19.9118 35.865 11.4593 28.2251 11.4995 19.7132C11.4995 13.371 16.6573 8.21322 22.9995 8.21322Z" fill="white"/>
</svg>
