<svg width="41" height="42" viewBox="0 0 41 42" fill="none" xmlns="http://www.w3.org/2000/svg">
<path d="M37.1455 10.2493C35.9207 10.7776 34.5878 11.1578 33.2149 11.3059C34.6403 10.4591 35.7077 9.12132 36.2168 7.5435C34.8793 8.33918 33.414 8.89712 31.886 9.19257C31.2474 8.50984 30.475 7.96594 29.617 7.59477C28.7589 7.2236 27.8337 7.03311 26.8988 7.03517C23.1163 7.03517 20.0744 10.1012 20.0744 13.8636C20.0744 14.3919 20.1384 14.9203 20.2425 15.4286C14.5788 15.1324 9.52753 12.4267 6.16936 8.28398C5.55746 9.32912 5.2368 10.5191 5.24075 11.7302C5.24075 14.0998 6.44553 16.1891 8.28273 17.4179C7.20004 17.3753 6.14271 17.0777 5.19672 16.5493V16.6334C5.19672 19.9516 7.54225 22.7013 10.6683 23.3337C10.0813 23.4862 9.47753 23.5642 8.87111 23.5659C8.42682 23.5659 8.00655 23.5219 7.58227 23.4618C8.44683 26.1676 10.9645 28.1329 13.9624 28.1969C11.6169 30.0341 8.67898 31.1148 5.48891 31.1148C4.91654 31.1148 4.3882 31.0948 3.83984 31.0307C6.86581 32.972 10.4561 34.0927 14.3226 34.0927C26.8748 34.0927 33.7432 23.694 33.7432 14.6681C33.7432 14.3719 33.7432 14.0757 33.7232 13.7795C35.0521 12.8069 36.2168 11.6021 37.1455 10.2493Z" fill="white"/>
</svg>
