<svg width="73" height="61" viewBox="0 0 73 61" fill="none" xmlns="http://www.w3.org/2000/svg">
<g clip-path="url(#clip0_36_1909)">
<path d="M36.6588 0.796875C17.3236 0.796875 2.17543 25.3969 0.742188 46.1743C6.80979 56.7048 21.4416 60.6631 36.6594 60.6631C51.876 60.6631 66.5087 56.7048 72.5732 46.1741C71.1396 25.3969 55.9935 0.796875 36.6591 0.796875" fill="#B6DEFF"/>
<path d="M67.5198 41.2251C67.5198 41.2251 63.2493 31.9924 58.9088 26.6059C54.5651 21.2172 49.2606 15.3496 46.1243 15.3496C42.9896 15.3496 34.2268 30.8645 30.2068 30.8645C26.186 30.8645 24.0964 23.8313 19.153 23.8313C14.2077 23.8313 6.35075 40.7916 6.35075 40.7916L5.81836 43.6668C5.81836 43.6668 8.54794 55.7685 37.104 55.7685C65.6612 55.7685 67.9434 43.8654 67.9434 43.8654L67.52 41.2248" fill="#66CC66"/>
<path d="M30.6541 37.4855C26.2191 37.4855 23.9456 33.1097 22.7129 30.4086C21.6045 27.9753 21.4126 24.1336 18.2676 24.026C18.5766 23.9035 18.8741 23.8311 19.1529 23.8311C24.0963 23.8311 26.1859 30.8643 30.2067 30.8643C34.2267 30.8643 42.9895 15.3491 46.1242 15.3491C46.7149 15.3491 47.3802 15.5576 48.1022 15.9283C47.5681 15.8579 46.8833 15.9069 46.3557 16.4362C45.3425 17.4497 36.1445 37.4855 30.6541 37.4855Z" fill="#17AD49"/>
</g>
<defs>
<clipPath id="clip0_36_1909">
<rect width="72.1127" height="60" fill="white" transform="translate(0.517578 0.796875)"/>
</clipPath>
</defs>
</svg>
