<svg width="61" height="72" viewBox="0 0 61 72" fill="none" xmlns="http://www.w3.org/2000/svg">
<g clip-path="url(#clip0_36_1903)">
<path d="M18.89 0.724704C18.5465 0.726916 18.209 0.814634 17.908 0.979939C16.9194 1.52791 16.5568 2.79799 17.1045 3.78588L19.3365 7.81619C13.959 11.1431 10.3958 16.8263 10.3958 23.3126V24.5178C9.36289 23.3295 7.84484 22.5792 6.14867 22.5792C3.04086 22.5792 0.517578 25.1025 0.517578 28.2101V45.556C0.517578 48.6633 3.04109 51.1868 6.14867 51.1868C7.84484 51.1868 9.36289 50.4364 10.3955 49.2481V51.6778C10.3955 54.9537 13.0761 57.634 16.352 57.634H17.8632V65.3503C17.8632 68.4581 20.3867 70.9814 23.4943 70.9814C26.6019 70.9814 29.1252 68.4579 29.1252 65.3503V57.634H31.7398V65.3503C31.7398 68.4581 34.2634 70.9814 37.3709 70.9814C40.4785 70.9814 43.0018 68.4579 43.0018 65.3503V57.634H44.5133C47.7889 57.634 50.4695 54.9537 50.4695 51.6778V49.2481C51.5021 50.4364 53.0204 51.1868 54.7166 51.1868C57.8241 51.1868 60.3474 48.6633 60.3474 45.556V28.2101C60.3474 25.1025 57.8241 22.5792 54.7166 22.5792C53.0204 22.5792 51.5021 23.3295 50.4695 24.5178V23.5165V23.4591C50.4699 23.3981 50.4695 23.3494 50.4695 23.3126C50.4695 16.8274 46.898 11.1499 41.5224 7.82275L43.7607 3.78588C44.3082 2.79799 43.9459 1.52791 42.9573 0.979939C42.6562 0.814634 42.3187 0.726916 41.9752 0.724704C41.2452 0.717673 40.5287 1.10252 40.1513 1.78338L37.8109 6.0115C35.5224 5.16705 33.0324 4.70416 30.4327 4.70416C27.8354 4.70416 25.3407 5.16213 23.0541 6.00494L20.7139 1.78338C20.3363 1.10252 19.6201 0.718142 18.89 0.724704Z" fill="white"/>
<path d="M6.14852 24.0459C3.82961 24.0459 1.98438 25.8911 1.98438 28.21V45.5559C1.98438 47.8748 3.82961 49.72 6.14852 49.72C8.46742 49.72 10.3129 47.8748 10.3129 45.5559V28.21C10.3129 25.8911 8.46742 24.0459 6.14852 24.0459ZM54.7166 24.0459C52.3975 24.0459 50.5523 25.8911 50.5523 28.21V45.5559C50.5523 47.8748 52.3975 49.72 54.7166 49.72C57.0355 49.72 58.8808 47.8748 58.8808 45.5559V28.21C58.8808 25.8911 57.0355 24.0459 54.7166 24.0459Z" fill="#A4C639"/>
<path d="M23.4945 43.8403C21.1755 43.8403 19.3301 45.6856 19.3301 48.0047V65.3503C19.3301 67.6692 21.1755 69.5145 23.4945 69.5145C25.8134 69.5145 27.6586 67.6692 27.6586 65.3503V48.0047C27.6586 45.6856 25.8134 43.8403 23.4945 43.8403ZM37.3711 43.8403C35.052 43.8403 33.2067 45.6856 33.2067 48.0047V65.3503C33.2067 67.6692 35.052 69.5145 37.3711 69.5145C39.69 69.5145 41.5352 67.6692 41.5352 65.3503V48.0047C41.5352 45.6856 39.69 43.8403 37.3711 43.8403Z" fill="#A4C639"/>
<path d="M18.9034 2.19149C18.805 2.19267 18.7084 2.21897 18.6229 2.26789C18.3259 2.43243 18.2284 2.77368 18.3932 3.07133L21.3269 8.37078C15.6831 11.3075 11.8708 16.8882 11.8633 23.2932H49.0035C48.9958 16.8882 45.1837 11.3073 39.5399 8.37078L42.4734 3.07157C42.6384 2.77391 42.5406 2.43243 42.2437 2.26789C42.1582 2.21894 42.0616 2.19264 41.9631 2.19149C41.7522 2.18914 41.5527 2.29461 41.4402 2.49758L38.4684 7.85422C36.0374 6.7761 33.3107 6.17071 30.4333 6.17071C27.5559 6.17071 24.8294 6.77586 22.3982 7.85422L19.4263 2.49758C19.3757 2.40355 19.3001 2.32527 19.2079 2.27128C19.1157 2.2173 19.0105 2.1897 18.9037 2.19149H18.9034ZM11.8633 24.7599V51.6779C11.862 52.2678 11.9773 52.8521 12.2025 53.3974C12.4276 53.9426 12.7583 54.438 13.1754 54.8552C13.5926 55.2723 14.088 55.6029 14.6332 55.828C15.1785 56.0532 15.7628 56.1684 16.3527 56.1671H44.5141C45.104 56.1684 45.6884 56.0532 46.2336 55.828C46.7789 55.6028 47.2743 55.2722 47.6915 54.8551C48.1086 54.4379 48.4393 53.9425 48.6644 53.3972C48.8896 52.852 49.0048 52.2676 49.0035 51.6777V24.7602H11.8633V24.7599Z" fill="#A4C639"/>
<path d="M21.8622 13.396C21.0145 13.396 20.3125 14.0977 20.3125 14.9455C20.3125 15.7934 21.0145 16.4951 21.8622 16.4951C22.7102 16.4951 23.4119 15.7934 23.4119 14.9455C23.4119 14.0977 22.7102 13.396 21.8622 13.396ZM39.0039 13.396C38.1559 13.396 37.4542 14.0977 37.4542 14.9455C37.4542 15.7934 38.1559 16.4951 39.0039 16.4951C39.8516 16.4951 40.5536 15.7934 40.5536 14.9455C40.5536 14.0977 39.8516 13.396 39.0039 13.396Z" fill="white"/>
</g>
<defs>
<clipPath id="clip0_36_1903">
<rect width="60" height="70.5469" fill="white" transform="translate(0.517578 0.523438)"/>
</clipPath>
</defs>
</svg>
