<svg width="151" height="61" viewBox="0 0 151 61" fill="none" xmlns="http://www.w3.org/2000/svg">
<g clip-path="url(#clip0_36_1915)">
<path d="M0.630859 0.796875V4.89795H29.7996V0.796875H0.630859ZM33.9323 0.796875V4.89795H75.4992C75.4992 4.89795 71.2532 0.796875 65.6299 0.796875H33.9323ZM83.6533 0.796875V4.89795H108.801L107.308 0.796875H83.6533ZM126.83 0.796875L125.337 4.89795H150.256V0.796875H126.83ZM0.630859 8.77248V12.8736H29.7996V8.77248H0.630859ZM33.9323 8.77834V12.8736H80.3226C80.3226 12.8736 79.7808 9.71727 78.8357 8.77834H33.9323ZM83.6533 8.77834V12.8736H111.558L110.176 8.77834H83.6533ZM123.845 8.77834L122.463 12.8736H150.256V8.77834H123.845ZM9.0133 16.7481V20.8544H21.6455V16.7481H9.0133ZM42.3148 16.7481V20.8544H54.947V16.7481H42.3148ZM67.2338 16.7481V20.8544H79.866C79.866 20.8544 80.6679 18.6857 80.6679 16.7478H67.2338V16.7481ZM92.0357 16.7481V20.8544H114.432L112.939 16.7478H92.0357V16.7481ZM121.093 16.7481L119.595 20.8547H142.102V16.7481H121.093ZM9.0133 24.7296V28.83H21.6455V24.7296H9.0133ZM42.3148 24.7296V28.83H74.5801C74.5801 28.83 77.2793 26.7257 78.1392 24.729H42.3148V24.7296ZM92.0357 24.7296V28.83H104.668V26.5471L105.47 28.83H128.609L129.47 26.5471V28.83H142.102V24.7296H118.389L117.13 28.2034L115.866 24.7296H92.0357ZM9.0133 32.7046V36.8057H21.6455V32.7046H9.0133ZM42.3148 32.7046V36.8057H78.1392C77.279 34.8154 74.5801 32.7046 74.5801 32.7046H42.3148ZM92.0357 32.7046V36.8057H104.668V32.7046H92.0357ZM106.963 32.7046L108.49 36.8057H125.841L127.292 32.7046H106.963ZM129.47 32.7046V36.8057H142.102V32.7046H129.47ZM9.0133 40.6802V44.7813H21.6455V40.6802H9.0133ZM42.3148 40.6802V44.7813H54.947V40.6802H42.3148ZM67.2338 40.6802V44.7813H80.6679C80.6679 42.8458 79.866 40.6802 79.866 40.6802H67.2338ZM92.0357 40.6802V44.7813H104.668V40.6802H92.0357ZM109.831 40.6802L111.312 44.7813H122.943L124.436 40.6802H109.831ZM129.47 40.6802V44.7813H142.102V40.6802H129.47ZM0.859152 48.6561V52.7627H30.0279V48.6558H0.859152V48.6561ZM33.9323 48.6561V52.7627H78.8357C79.7808 51.8223 80.3226 48.6558 80.3226 48.6558H33.9323V48.6561ZM83.8816 48.6561V52.7627H104.668V48.6558H83.8816V48.6561ZM112.705 48.6561L114.227 52.7627H120.145L121.573 48.6558H112.705V48.6561ZM129.47 48.6561V52.7627H150.485V48.6558H129.47V48.6561ZM0.859152 56.6373V60.7383H30.0279V56.6373H0.859152ZM33.9323 56.6373V60.7322H65.6299C71.2532 60.7322 75.4992 56.637 75.4992 56.637H33.9323V56.6373ZM83.8816 56.6373V60.7383H104.668V56.6373H83.8816ZM115.591 56.6373L117.054 60.7263L117.306 60.7322L118.793 56.637H115.591V56.6373ZM129.47 56.6373V60.7383H150.485V56.6373H129.47Z" fill="#1F70C1"/>
</g>
<defs>
<clipPath id="clip0_36_1915">
<rect width="149.854" height="60" fill="white" transform="translate(0.630859 0.796875)"/>
</clipPath>
</defs>
</svg>
