<svg width="61" height="61" viewBox="0 0 61 61" fill="none" xmlns="http://www.w3.org/2000/svg">
<g clip-path="url(#clip0_36_1890)">
<path d="M13.6576 0.796875H47.3776C54.6348 0.796875 60.5176 6.67969 60.5176 13.9369V47.6569C60.5176 54.9141 54.6348 60.7969 47.3776 60.7969H13.6576C6.40039 60.7969 0.517578 54.9141 0.517578 47.6569V13.9369C0.517578 6.67969 6.40039 0.796875 13.6576 0.796875Z" fill="url(#paint0_linear_36_1890)"/>
<path d="M19.7469 44.3459L19.7525 44.3477L17.701 47.9009C16.9522 49.1979 15.2938 49.6423 13.9967 48.8934C12.6999 48.1446 12.2553 46.4862 13.0041 45.1891L14.5154 42.5716L14.6605 42.3204C14.9195 41.9482 15.5586 41.3055 16.8371 41.4265C16.8371 41.4265 19.8458 41.753 20.0635 43.3167C20.0635 43.3167 20.0931 43.8312 19.7469 44.3459ZM48.8429 35.2709H42.4459C42.0102 35.2416 41.8201 35.0859 41.7451 34.9955L41.7404 34.9873L34.8927 23.1265L34.8838 23.1323L34.4731 22.5436C33.8 21.5142 32.7313 24.1467 32.7313 24.1467C31.4551 27.0802 32.9124 30.4151 33.4203 31.4231L42.9317 47.8973C43.6803 49.1941 45.3388 49.6387 46.636 48.8897C47.9328 48.1409 48.3774 46.4824 47.6284 45.1854L45.2502 41.066C45.204 40.9662 45.1238 40.6952 45.6116 40.6941H48.8429C50.3406 40.6941 51.5546 39.48 51.5546 37.9823C51.5546 36.4847 50.3406 35.2706 48.8429 35.2706V35.2709ZM36.4177 38.9571C36.4177 38.9571 36.7592 40.6941 35.4381 40.6941H11.7898C10.2922 40.6941 9.07812 39.48 9.07812 37.9823C9.07812 36.4847 10.2922 35.2706 11.7898 35.2706H17.8695C18.8511 35.2139 19.0836 34.6472 19.0836 34.6472L19.0892 34.65L27.0252 20.9044L27.0228 20.9039C27.1674 20.6384 27.047 20.3873 27.0261 20.3477L24.4051 15.8081C23.6563 14.5113 24.1006 12.8526 25.3977 12.1041C26.6947 11.3552 28.3531 11.7994 29.102 13.0964L30.3174 15.2018L31.5308 13.1001C32.2796 11.8034 33.9381 11.3587 35.2351 12.1078C36.5321 12.8566 36.9765 14.5148 36.2277 15.8119L25.1844 34.9392C25.1361 35.0557 25.1213 35.2385 25.4806 35.2706H32.0816L32.083 35.3351C32.083 35.3351 35.8981 35.3944 36.4177 38.9571Z" fill="white"/>
</g>
<defs>
<linearGradient id="paint0_linear_36_1890" x1="30.5176" y1="0.796875" x2="30.5176" y2="60.7969" gradientUnits="userSpaceOnUse">
<stop stop-color="#17C9FB"/>
<stop offset="1" stop-color="#1A74E8"/>
</linearGradient>
<clipPath id="clip0_36_1890">
<rect width="60" height="60" fill="white" transform="translate(0.517578 0.796875)"/>
</clipPath>
</defs>
</svg>
