<svg width="61" height="66" viewBox="0 0 61 66" fill="none" xmlns="http://www.w3.org/2000/svg">
<g clip-path="url(#clip0_36_1913)">
<path d="M56.4215 52.7476C55.9692 56.1095 53.7067 59.0185 50.5394 60.3113C48.9878 60.957 47.3074 61.1516 45.6264 60.957C44.0107 60.7634 42.3944 60.2462 40.7139 59.2775C38.3866 57.9833 36.0595 55.9803 33.3447 53.0066C37.6113 47.7706 40.1962 42.987 41.1663 38.7214C41.6189 36.7173 41.6833 34.9072 41.4897 33.2262C41.2314 31.6105 40.6495 30.1231 39.7441 28.8305C37.7402 25.922 34.3793 24.241 30.63 24.241C26.8807 24.241 23.5195 25.9866 21.5156 28.8305C20.6102 30.1234 20.0292 31.6105 19.7702 33.2262C19.5119 34.9072 19.5764 36.7817 20.0936 38.7216C21.063 42.9868 23.7131 47.8353 27.9152 53.0703C25.2649 56.0448 22.8731 58.0484 20.5457 59.3415C18.8653 60.3113 17.249 60.8286 15.6332 61.0217C13.9675 61.2078 12.2816 60.9862 10.7205 60.376C7.55293 59.0832 5.29097 56.1732 4.83816 52.812C4.64457 51.1965 4.77371 49.5807 5.42011 47.7706C5.61371 47.1237 5.93738 46.4785 6.26011 45.7023C6.71293 44.6684 7.23019 43.5687 7.74675 42.4695L7.81191 42.3411C12.2716 32.709 17.0554 22.8837 22.0328 13.3173L22.2267 12.9287C22.7439 11.96 23.2605 10.9262 23.7782 9.95609C24.295 8.92156 24.8768 7.95172 25.5876 7.11078C26.9451 5.55922 28.7552 4.71898 30.7591 4.71898C32.763 4.71898 34.5728 5.55922 35.9303 7.11102C36.6414 7.95172 37.2232 8.92156 37.7404 9.95633C38.2577 10.9262 38.7743 11.96 39.2915 12.9287L39.486 13.3173C44.3983 22.9482 49.1821 32.7734 53.6423 42.4055V42.4695C54.1596 43.5041 54.6117 44.6684 55.1289 45.7023C55.4524 46.4785 55.7753 47.1235 55.9689 47.7706C56.4862 49.4511 56.68 51.0678 56.4218 52.7476H56.4215ZM30.63 49.7091C27.1396 45.3141 24.8768 41.1767 24.1012 37.6871C23.7785 36.2 23.7131 34.9072 23.9076 33.7435C24.0365 32.709 24.4249 31.8036 24.9412 31.0273C26.1696 29.2836 28.2379 28.1827 30.63 28.1827C33.0218 28.1827 35.1548 29.218 36.3182 31.0273C36.835 31.8036 37.2232 32.709 37.3523 33.7435C37.5461 34.9072 37.4814 36.2645 37.1585 37.6871C36.3829 41.1127 34.1203 45.2497 30.63 49.7091ZM59.7829 46.3482C59.46 45.5724 59.1365 44.7324 58.8135 44.0213C58.2963 42.8584 57.779 41.7587 57.3264 40.7241L57.2617 40.6602C52.8021 30.9634 48.0182 21.1381 42.9761 11.4434L42.7825 11.0544C42.2653 10.0848 41.748 9.05023 41.2314 8.01617C40.5846 6.85203 39.9379 5.62508 38.9041 4.4607C36.8348 1.87508 33.862 0.453125 30.6942 0.453125C27.4621 0.453125 24.5536 1.87508 22.42 4.33203C21.4509 5.49523 20.7398 6.72336 20.0934 7.88773C19.5761 8.92156 19.0589 9.95609 18.5418 10.9262L18.348 11.3129C13.3711 21.009 8.52277 30.8349 4.06238 40.531L3.99793 40.6602C3.54511 41.694 3.02785 42.7925 2.51058 43.9569C2.16477 44.723 1.84159 45.4991 1.54144 46.2842C0.700739 48.6753 0.442458 50.9382 0.765426 53.2648C1.47699 58.1131 4.70902 62.1861 9.16918 63.9955C10.8494 64.707 12.5948 65.03 14.4051 65.03C14.9221 65.03 15.5686 64.9653 16.0858 64.9002C18.2186 64.6412 20.4164 63.9315 22.5492 62.7027C25.2 61.216 27.7211 59.0832 30.565 55.9803C33.4089 59.0832 35.9948 61.2162 38.5804 62.7027C40.7139 63.9315 42.9114 64.6412 45.0445 64.9002C45.5618 64.9653 46.2082 65.03 46.7252 65.03C48.5353 65.03 50.3449 64.707 51.9611 63.9955C56.486 62.1861 59.6533 58.0487 60.3644 53.2648C60.8817 51.0019 60.6227 48.7407 59.7827 46.348L59.7829 46.3482Z" fill="#E0565B"/>
</g>
<defs>
<clipPath id="clip0_36_1913">
<rect width="60" height="64.6875" fill="white" transform="translate(0.630859 0.453125)"/>
</clipPath>
</defs>
</svg>
